<?xml version="1.0" encoding="UTF-8" standalone="no"?><!DOCTYPE svg PUBLIC "-//W3C//DTD SVG 1.1//EN" "http://www.w3.org/Graphics/SVG/1.1/DTD/svg11.dtd"><svg width="100%" height="100%" viewBox="0 0 4025 1334" version="1.1" xmlns="http://www.w3.org/2000/svg" xmlns:xlink="http://www.w3.org/1999/xlink" xml:space="preserve" xmlns:serif="http://www.serif.com/" style="fill-rule:evenodd;clip-rule:evenodd;stroke-linejoin:round;stroke-miterlimit:2;"><path d="M1123.013,826.692c0,108.029 -42.079,209.617 -118.467,286.004c-78.842,78.842 -182.425,118.271 -286.004,118.271c-103.558,0 -207.142,-39.429 -286.004,-118.271l-313.931,-313.933c-76.389,-76.408 -118.468,-177.971 -118.468,-286c0,-108.032 42.079,-209.616 118.468,-286.005c157.704,-157.704 414.302,-157.704 572.006,0l313.933,313.934c76.387,76.408 118.467,177.971 118.467,286Z" style="fill:#11325b;fill-opacity:0.7;fill-rule:nonzero;"/><path d="M1439.129,512.763c0,108.029 -42.058,209.592 -118.446,286l-313.954,313.933c-78.842,78.842 -182.425,118.271 -286.004,118.271c-103.558,0 -207.142,-39.429 -286.004,-118.271c-76.387,-76.388 -118.445,-177.975 -118.445,-286.004c0,-108.029 42.058,-209.592 118.445,-286l313.954,-313.934c157.704,-157.704 414.304,-157.704 572.008,0c76.388,76.389 118.446,177.951 118.446,286.005Z" style="fill:#e7ba61;fill-opacity:0.7;fill-rule:nonzero;"/><g><g><g><g><path d="M1668.35,302.864l170.746,0l181.513,565.711l5.296,0l181.421,-565.711l170.833,0l-250.867,747.136l-208.071,0l-250.871,-747.136Z" style="fill:#11325b;fill-rule:nonzero;"/></g></g><path d="M2420.746,484.288l149.392,0l0,565.712l-149.392,0l0,-565.712Zm74.65,-58.679c-24.196,0 -44.488,-8.183 -60.85,-24.567c-16.321,-16.363 -24.479,-36.654 -24.479,-60.851c0,-24.175 8.158,-44.466 24.479,-60.85c16.362,-16.363 36.654,-24.566 60.85,-24.566c24.242,0 44.533,8.203 60.85,24.566c16.363,16.385 24.567,36.675 24.567,60.85c0,24.197 -8.204,44.488 -24.567,60.851c-16.317,16.384 -36.608,24.567 -60.85,24.567Z" style="fill:#11325b;fill-rule:nonzero;"/><path d="M2901.004,1050c-59.092,0 -103.212,-14.237 -132.379,-42.708c-29.167,-28.475 -43.75,-69.379 -43.75,-122.746l0,-261.458l-90.713,0l0,-138.8l90.713,0l21.354,-149.393l128.125,0l0,149.393l133.421,0l0,138.8l-133.421,0l0,234.812c0,16.383 4.796,29.383 14.408,38.975c9.592,9.612 22.571,14.408 38.892,14.408l80.121,0l0,138.717l-106.771,0Z" style="fill:#11325b;fill-rule:nonzero;"/><path d="M3258.517,1060.675c-30.621,0 -58.225,-4.425 -82.812,-13.279c-24.542,-8.9 -45.354,-21.179 -62.412,-36.804c-17.079,-15.671 -30.079,-34.204 -38.975,-55.558c-8.854,-21.354 -13.283,-44.833 -13.283,-70.483c0,-25.633 4.625,-49.092 13.892,-70.4c9.246,-21.354 23.113,-39.846 41.579,-55.471c18.512,-15.667 41.275,-27.971 68.317,-36.892c27.017,-8.896 58.7,-13.367 95.05,-13.367l133.421,0l0,-26.65c0,-27.021 -8.571,-47.092 -25.696,-60.242c-17.079,-13.196 -40.538,-19.792 -70.396,-19.792c-21.354,0 -39.5,4.642 -54.429,13.887c-14.929,9.2 -25.258,20.571 -30.988,34.113l-149.396,0c4.971,-22.742 13.675,-44.617 26.129,-65.625c12.438,-21.004 28.429,-39.692 48.004,-56.075c19.617,-16.362 43.1,-29.537 70.487,-39.496c27.362,-9.942 59.2,-14.929 95.483,-14.929c75.458,0 134.333,18.142 176.65,54.425c42.363,36.283 63.542,89.3 63.542,159.029l0,362.933l-128.125,0l-15.971,-64.062l-5.296,0c-5.729,7.812 -12.892,16.187 -21.442,25.087c-8.504,8.917 -19.183,17.1 -32.029,24.567c-12.804,7.463 -27.563,13.517 -44.271,18.142c-16.667,4.621 -35.679,6.942 -57.033,6.942Zm37.329,-122.742c34.896,0 63.192,-9.767 84.896,-29.342c21.7,-19.55 32.55,-45.354 32.55,-77.429l0,-15.971l-128.125,0c-27.037,0 -46.246,5.704 -57.638,17.1c-11.417,11.35 -17.1,25.217 -17.1,41.579c0,18.533 6.771,33.833 20.312,45.921c13.542,12.108 35.242,18.142 65.104,18.142Z" style="fill:#11325b;fill-rule:nonzero;"/><path d="M3664.013,484.288l128.037,0l16.062,64.063l5.292,0c16.367,-24.175 35.938,-40.908 58.683,-50.175c22.787,-9.242 47.7,-13.887 74.738,-13.887l69.358,0l0,144.096l-58.679,0c-45.554,0 -80.971,12.479 -106.25,37.417c-25.242,24.887 -37.85,58.679 -37.85,101.387l0,282.812l-149.392,0l0,-565.712Z" style="fill:#11325b;fill-rule:nonzero;"/></g></g></svg>